<?xml version="1.0" standalone="no"?>
<!DOCTYPE svg PUBLIC "-//W3C//DTD SVG 20010904//EN"
 "http://www.w3.org/TR/2001/REC-SVG-20010904/DTD/svg10.dtd">
<svg version="1.0" xmlns="http://www.w3.org/2000/svg"
 width="1024.000000pt" height="1024.000000pt" viewBox="0 0 1024.000000 1024.000000"
 preserveAspectRatio="xMidYMid meet">
<metadata>
Created by potrace 1.11, written by Peter Selinger 2001-2013
</metadata>
<g transform="translate(0.000000,1024.000000) scale(0.100000,-0.100000)"
fill="#000000" stroke="none">
<path d="M6977 9538 c-58 -12 -103 -50 -189 -157 -72 -89 -111 -136 -156 -186
-10 -11 -63 -74 -117 -140 -55 -66 -103 -122 -106 -125 -5 -4 -74 -86 -129
-154 -8 -10 -20 -23 -25 -30 -6 -6 -50 -60 -99 -121 -49 -60 -94 -114 -100
-120 -6 -5 -27 -30 -47 -55 -20 -25 -45 -55 -55 -67 -11 -11 -35 -41 -54 -64
-19 -24 -49 -59 -66 -79 -17 -19 -82 -96 -143 -170 -62 -74 -134 -159 -159
-189 -26 -30 -53 -63 -61 -75 -8 -11 -18 -23 -21 -26 -3 -3 -49 -57 -100 -120
-52 -63 -97 -117 -100 -120 -3 -3 -19 -21 -35 -41 -128 -152 -303 -359 -328
-389 -12 -14 -65 -77 -116 -140 -52 -63 -98 -117 -101 -120 -28 -22 -129 -165
-142 -200 -14 -39 -42 -202 -68 -395 -5 -33 -15 -98 -24 -145 -8 -47 -17 -101
-20 -120 -3 -19 -24 -154 -46 -300 -23 -146 -43 -278 -45 -293 -5 -35 -9 -60
-44 -282 -16 -99 -28 -204 -27 -233 l1 -52 -45 -16 c-25 -9 -63 -23 -85 -31
-22 -8 -40 -14 -40 -13 0 2 3 3 -135 -45 -58 -20 -112 -38 -120 -40 -8 -2 -53
-18 -100 -35 -47 -17 -92 -33 -100 -35 -8 -2 -58 -20 -110 -40 -52 -20 -102
-38 -110 -40 -8 -2 -16 -4 -17 -5 -2 -2 -6 -3 -10 -5 -5 -1 -21 -7 -38 -14
-16 -7 -55 -22 -85 -33 -30 -11 -64 -23 -75 -28 -81 -36 -373 -150 -383 -150
-7 0 -12 -4 -12 -9 0 -5 -12 -12 -26 -15 -14 -4 -53 -20 -87 -35 -185 -86
-220 -101 -228 -101 -5 0 -9 -5 -9 -10 0 -6 -3 -9 -7 -8 -7 2 -150 -67 -193
-92 -8 -5 -55 -32 -105 -60 -121 -69 -129 -73 -137 -85 -4 -5 -8 -6 -8 -2 0 4
-12 -4 -27 -18 -16 -14 -36 -28 -45 -31 -10 -3 -18 -9 -18 -14 0 -5 -9 -11
-20 -15 -11 -3 -62 -48 -113 -98 -88 -86 -125 -138 -153 -214 -14 -39 -11
-156 5 -161 6 -2 11 -10 11 -17 0 -21 67 -74 140 -109 63 -31 81 -37 150 -51
14 -3 32 -8 40 -12 8 -3 22 -7 30 -8 20 -2 111 -17 130 -21 8 -2 38 -6 65 -9
28 -3 61 -8 75 -10 56 -8 263 -24 435 -32 196 -9 2605 -9 2605 0 0 5 4 5 10 2
5 -3 184 -8 397 -11 483 -6 628 -10 641 -18 6 -4 13 -2 17 4 4 6 11 8 16 4 5
-3 46 -7 92 -9 126 -6 254 -14 337 -20 41 -3 105 -7 142 -10 37 -2 93 -7 125
-10 32 -3 76 -8 98 -10 22 -2 63 -7 90 -10 28 -3 68 -8 90 -10 66 -7 118 -14
147 -20 15 -4 48 -8 73 -10 24 -2 53 -8 62 -13 10 -4 28 -7 41 -6 12 0 22 -3
22 -8 0 -5 4 -6 10 -3 5 3 27 1 47 -4 21 -6 49 -12 63 -15 14 -2 25 -5 25 -6
0 -1 7 -3 15 -5 89 -18 211 -59 288 -97 58 -28 67 -38 62 -63 -1 -5 2 -7 5 -3
12 12 48 -42 49 -72 1 -16 5 -28 11 -27 5 1 10 -4 11 -10 1 -7 2 -14 4 -15 6
-8 4 -60 -3 -65 -4 -2 -3 -11 4 -19 9 -11 9 -14 0 -14 -7 0 -11 -8 -9 -17 1
-10 -1 -24 -5 -31 -5 -6 -5 -12 -1 -12 4 0 0 -8 -9 -17 -8 -10 -17 -22 -18
-28 -4 -23 -23 -55 -31 -55 -5 0 -6 -5 -3 -10 3 -6 1 -10 -4 -10 -6 0 -11 -6
-11 -14 0 -8 -7 -17 -16 -20 -8 -3 -13 -10 -10 -14 3 -5 -6 -15 -19 -22 -13
-7 -23 -16 -21 -19 2 -3 -2 -12 -10 -19 -8 -7 -14 -10 -14 -7 0 3 -20 -15 -45
-40 -25 -25 -50 -45 -55 -45 -6 0 -10 -4 -10 -10 0 -5 -5 -10 -11 -10 -7 0
-22 -11 -34 -24 -13 -14 -26 -22 -29 -19 -3 4 -6 1 -6 -5 0 -7 -7 -12 -15 -12
-7 0 -18 -8 -24 -17 -5 -10 -13 -18 -18 -17 -8 1 -54 -25 -63 -37 -3 -3 -20
-12 -37 -20 -18 -8 -33 -18 -33 -22 0 -5 -4 -5 -10 -2 -5 3 -10 1 -10 -4 0 -6
-5 -11 -11 -11 -6 0 -24 -9 -40 -21 -16 -11 -29 -17 -29 -14 0 4 -15 -2 -32
-13 -56 -34 -183 -97 -190 -94 -5 1 -8 -2 -8 -8 0 -5 -6 -7 -14 -4 -7 3 -20
-2 -29 -10 -9 -9 -22 -16 -31 -16 -8 0 -18 -5 -21 -10 -4 -6 -11 -8 -16 -5 -5
4 -9 1 -9 -5 0 -6 -4 -8 -10 -5 -5 3 -10 1 -10 -4 0 -6 -3 -10 -7 -9 -8 1 -44
-12 -88 -31 -17 -8 -49 -21 -65 -26 -3 -1 -18 -7 -35 -14 -16 -6 -61 -23 -100
-38 -38 -14 -74 -29 -79 -34 -5 -4 -15 -5 -22 -2 -8 3 -14 0 -14 -6 0 -6 -3
-10 -7 -10 -5 1 -11 0 -15 -1 -5 -1 -11 -3 -15 -4 -5 -1 -100 -32 -213 -68
-113 -37 -257 -81 -320 -98 -63 -17 -133 -38 -155 -45 -22 -7 -53 -15 -70 -18
-16 -3 -55 -13 -87 -21 -31 -8 -67 -18 -80 -20 -12 -3 -88 -21 -168 -40 -80
-19 -158 -37 -175 -40 -16 -2 -97 -21 -180 -41 -82 -20 -170 -40 -195 -45 -25
-5 -126 -30 -225 -55 -201 -51 -208 -52 -250 -61 -16 -3 -91 -21 -165 -39 -74
-19 -148 -36 -163 -39 -16 -3 -43 -10 -61 -16 -36 -11 -64 -18 -111 -26 -62
-11 -310 -76 -318 -83 -11 -11 99 -6 323 14 25 2 77 7 115 10 160 13 192 15
235 20 245 25 345 35 375 40 71 12 93 15 140 20 28 4 106 15 175 25 69 11 141
21 160 24 49 6 135 21 180 31 14 3 39 7 55 10 17 2 62 11 100 20 79 18 97 22
140 29 17 3 62 12 100 21 39 9 77 18 86 20 9 2 33 8 53 13 20 6 36 8 36 6 0
-3 8 0 18 5 9 5 33 12 52 15 19 3 60 13 90 21 30 9 68 18 84 21 16 3 41 10 55
16 14 5 37 12 51 15 42 8 55 11 55 13 0 1 7 3 15 5 74 18 72 17 145 40 33 11
62 19 65 20 3 0 39 12 80 25 41 13 77 25 80 25 3 1 25 7 50 14 25 7 47 13 50
13 3 0 14 5 25 11 11 6 25 12 30 13 20 4 141 46 173 61 19 8 36 12 39 9 3 -3
12 2 20 10 8 8 19 12 24 9 5 -4 9 -2 9 2 0 5 8 9 18 10 17 2 244 91 337 134
28 12 53 23 58 24 4 2 10 4 15 5 4 1 10 2 15 1 4 0 7 3 7 9 0 5 5 10 11 10 15
0 102 42 110 53 3 5 9 8 13 7 8 -2 198 91 206 101 10 12 70 39 70 32 0 -4 7 3
16 15 8 12 19 22 25 22 11 0 121 71 131 85 5 7 8 7 8 0 0 -5 5 -2 11 7 5 10
17 18 24 18 8 0 15 5 15 10 0 6 4 10 10 10 9 0 35 19 65 48 8 6 19 12 25 12 6
0 8 5 5 10 -3 6 -1 10 4 10 6 0 31 20 56 44 25 25 45 42 45 39 0 -3 9 5 20 18
11 13 35 41 52 62 18 21 32 41 31 45 -1 4 5 11 13 15 8 5 12 12 9 18 -4 5 -2
9 3 9 10 0 58 90 54 102 -1 4 3 8 9 8 6 0 8 7 5 15 -3 9 1 18 10 22 13 5 13 7
2 14 -10 7 -11 9 0 9 7 0 10 5 7 10 -3 6 0 10 7 10 10 0 10 2 0 9 -16 10 -16
9 -3 44 6 15 7 27 3 27 -4 0 -8 15 -9 33 -4 45 -8 65 -16 73 -4 4 -7 16 -7 26
0 10 -4 18 -10 18 -5 0 -10 9 -10 20 0 11 -4 20 -10 20 -5 0 -10 7 -10 15 0 8
-4 15 -10 15 -5 0 -13 12 -16 26 -4 16 -9 22 -14 14 -5 -8 -10 -6 -15 7 -5 10
-7 21 -7 25 1 5 -5 8 -14 8 -8 0 -12 4 -9 10 3 6 -1 7 -9 4 -9 -3 -16 -2 -16
4 0 12 -101 62 -185 91 -33 12 -67 24 -75 28 -8 3 -24 8 -35 10 -11 2 -27 6
-35 10 -8 4 -22 8 -30 9 -8 2 -44 10 -80 19 -36 9 -78 18 -95 21 -16 2 -38 7
-47 10 -10 3 -30 7 -45 10 -16 2 -41 7 -58 11 -38 8 -69 13 -120 18 -22 2 -40
4 -40 5 0 3 -14 5 -90 14 -27 3 -66 8 -85 11 -64 9 -121 15 -194 21 -39 3 -89
8 -111 10 -22 2 -69 6 -105 9 -267 18 -345 22 -584 30 -93 2 -171 7 -174 9 -2
3 -15 1 -28 -4 -13 -5 -24 -6 -24 -1 0 11 -1550 11 -1572 0 -9 -5 -19 -6 -22
-1 -2 4 -22 6 -43 5 -111 -8 -173 -7 -173 2 0 7 -3 7 -8 0 -4 -6 -63 -11 -137
-11 -71 -1 -312 -5 -535 -9 -649 -11 -1156 -8 -1420 10 -128 9 -207 15 -227
19 -12 3 -48 7 -80 11 -32 3 -66 8 -75 11 -16 5 -40 10 -87 20 -90 18 -201 77
-222 116 -19 36 -14 104 11 152 30 60 168 196 198 196 7 0 11 4 8 8 -3 4 12
17 32 27 20 11 39 22 42 26 3 3 34 22 70 42 36 21 72 42 80 47 8 5 35 19 60
31 25 12 57 30 73 41 15 11 27 17 27 14 0 -3 39 14 88 38 48 24 103 51 122 59
19 8 62 27 95 42 33 15 83 36 110 47 28 10 64 25 80 32 17 8 91 37 165 66 74
29 149 58 167 66 17 8 35 14 40 14 7 0 97 33 178 65 11 4 26 9 33 11 8 1 21 6
30 10 9 4 20 8 25 9 4 2 9 4 12 5 3 1 8 3 13 5 4 1 14 4 22 7 42 16 56 21 65
24 6 1 71 23 145 49 74 25 191 64 258 86 68 21 132 44 143 49 10 6 19 9 19 6
0 -3 17 1 37 8 31 11 42 10 67 -3 40 -19 135 -18 176 3 18 9 37 16 41 16 5 0
32 11 61 24 29 14 109 48 178 76 69 28 139 57 155 65 17 7 120 50 230 95 110
45 214 88 230 95 17 7 109 45 205 85 96 39 189 77 205 85 17 8 66 28 110 46
80 32 197 102 204 121 2 6 24 34 50 62 25 29 67 77 92 107 66 78 211 251 229
272 8 10 24 29 35 41 11 12 38 44 60 70 22 27 45 54 50 60 6 6 35 40 64 76 30
36 60 72 67 80 7 8 21 24 31 35 10 12 35 42 56 68 21 25 43 52 50 59 7 7 35
40 62 73 28 33 52 62 56 65 3 3 29 34 58 70 29 36 70 83 90 105 20 22 70 80
111 130 41 49 82 97 90 105 8 9 24 27 35 41 83 100 231 277 244 290 9 9 30 34
46 54 17 21 35 43 40 49 12 13 129 152 154 181 20 25 169 202 193 230 9 11 26
31 38 45 12 14 38 45 58 69 21 25 44 52 52 60 8 9 33 39 55 66 22 28 45 55 50
61 6 6 30 35 55 64 25 30 60 70 78 90 17 21 32 43 32 49 0 6 4 11 9 11 5 0 14
23 21 50 40 166 -113 290 -275 225 -19 -8 -96 -82 -140 -136 -136 -165 -171
-206 -182 -219 -30 -33 -60 -68 -98 -114 -22 -27 -45 -54 -52 -61 -9 -10 -58
-67 -133 -158 -8 -10 -23 -28 -33 -40 -11 -12 -35 -42 -55 -66 -21 -24 -41
-49 -47 -55 -9 -10 -135 -160 -190 -225 -11 -13 -24 -29 -30 -35 -5 -6 -32
-38 -60 -71 -27 -33 -52 -62 -55 -65 -3 -3 -25 -30 -50 -60 -25 -30 -47 -57
-50 -60 -3 -3 -43 -50 -89 -105 -46 -55 -89 -104 -95 -110 -6 -5 -31 -35 -56
-65 -24 -30 -60 -73 -80 -96 -19 -22 -53 -62 -75 -89 -22 -27 -47 -56 -55 -65
-8 -8 -52 -60 -98 -115 -105 -126 -161 -193 -187 -222 -11 -12 -30 -35 -42
-50 -12 -15 -30 -37 -40 -48 -15 -16 -281 -332 -288 -343 -1 -1 -74 55 -163
125 -88 70 -205 163 -260 206 -54 43 -108 85 -118 95 -11 9 -49 39 -84 67 -36
27 -70 54 -76 60 -7 5 -25 20 -40 32 -111 87 -266 212 -267 215 -2 5 110 143
167 208 12 14 44 52 71 85 28 33 52 62 55 65 3 3 39 46 80 95 41 50 77 92 80
95 3 3 61 73 130 155 68 83 126 152 129 155 3 3 35 41 71 85 35 44 67 82 70
85 3 3 26 30 51 60 25 30 97 116 160 190 63 74 122 144 131 155 9 11 65 79
125 150 59 72 139 168 177 215 39 47 72 87 75 90 4 3 38 44 78 91 39 48 78 93
85 100 8 8 21 24 29 36 8 12 38 48 66 80 53 61 138 162 267 318 28 33 53 62
56 65 15 12 40 81 44 118 4 45 -31 135 -62 158 -55 42 -113 56 -175 42z
m-2033 -3345 c39 -32 89 -71 110 -88 21 -16 50 -40 64 -52 15 -12 110 -87 212
-168 183 -144 235 -186 277 -222 22 -19 47 -37 73 -53 19 -12 21 -11 -95 -60
-55 -23 -113 -48 -130 -55 -16 -7 -41 -17 -55 -20 -14 -4 -31 -12 -39 -18 -7
-6 -18 -12 -25 -13 -6 -1 -72 -28 -146 -59 -74 -31 -193 -81 -265 -110 -71
-29 -152 -63 -178 -74 -27 -12 -51 -21 -54 -21 -3 0 -2 15 1 33 4 17 9 48 12
67 6 53 13 99 24 160 5 30 12 73 15 95 3 22 10 67 15 100 5 33 12 80 15 105 3
25 7 52 10 60 4 14 6 26 20 130 3 25 15 95 26 155 10 61 20 122 21 138 1 15 6
27 11 27 5 0 41 -26 81 -57z"/>
</g>
</svg>
